700 0 1 0           
30 Autodesk Translation Framework 21 ASM 232.3.0.65535 OSX 24 Sun Jun 21 22:07:32 2026 
1 9.999999999999999547e-07 1.000000000000000036e-10 
body $1 -1 $-1 $2 $-1 $-1 #
rgb_color-st-attrib $-1 -1 $3 $-1 $0 0.9568627450980392579 0.898039215686274539 0.6549019607843137303 #
lump $-1 -1 $-1 $-1 $4 $0 #
ATTRIB_CUSTOM-attrib $-1 -1 $-1 $1 $0 @20 Timestamp_attrib_def 1 1782061632235421 #
shell $-1 -1 $-1 $-1 $-1 $5 $-1 $2 #
face $6 -1 $-1 $7 $8 $4 $-1 $9 forward single #
DXID-attrib $-1 -1 $-1 $-1 $5 @10 ASM ENTITY @1 0 #
face $10 -1 $-1 $11 $12 $4 $-1 $13 forward single #
loop $-1 -1 $-1 $-1 $14 $5 #
plane-surface $-1 -1 $-1 0 -0.5 0.4330127018922198534 0 -1 0 0 0 -10 forward_v I I I I #
DXID-attrib $-1 -1 $-1 $-1 $7 @10 ASM ENTITY @1 1 #
face $15 -1 $-1 $16 $17 $4 $-1 $18 forward single #
loop $-1 -1 $-1 $-1 $19 $7 #
plane-surface $-1 -1 $-1 -0.5000000000000004441 0 0 -0.8660254037844389297 0 0.4999999999999995559 4.999999999999995559 0 8.660254037844389075 forward_v I I I I #
coedge $-1 -1 $-1 $20 $21 $22 $23 forward $8 $-1 #
DXID-attrib $-1 -1 $-1 $-1 $11 @10 ASM ENTITY @1 2 #
face $24 -1 $-1 $25 $26 $4 $-1 $27 forward single #
loop $-1 -1 $-1 $-1 $28 $11 #
plane-surface $-1 -1 $-1 0.5000000000000004441 0 0 0 0 -1 -10 -0 -0 forward_v I I I I #
coedge $-1 -1 $-1 $29 $30 $31 $32 reversed $12 $-1 #
coedge $-1 -1 $-1 $21 $14 $30 $33 forward $8 $-1 #
coedge $-1 -1 $-1 $14 $20 $34 $35 forward $8 $-1 #
coedge $-1 -1 $-1 $36 $31 $14 $23 reversed $26 $-1 #
edge $-1 -1 $-1 $37 0 $38 0.1000000000000001443 $22 $39 forward @7 unknown #
DXID-attrib $-1 -1 $-1 $-1 $16 @10 ASM ENTITY @1 3 #
face $40 -1 $-1 $-1 $41 $4 $-1 $42 forward single #
loop $-1 -1 $-1 $-1 $36 $16 #
plane-surface $-1 -1 $-1 -4.163336342344337027e-16 0 0.8660254037844397068 0.8660254037844385966 0 0.500000000000000222 5.000000000000001776 0 -8.660254037844385522 forward_v I I I I #
coedge $-1 -1 $-1 $43 $34 $44 $45 forward $17 $-1 #
coedge $-1 -1 $-1 $44 $19 $46 $47 reversed $12 $-1 #
coedge $-1 -1 $-1 $19 $44 $20 $33 reversed $12 $-1 #
coedge $-1 -1 $-1 $22 $48 $19 $32 forward $26 $-1 #
edge $-1 -1 $-1 $49 -0.05000000000000000278 $38 0.05000000000000000278 $31 $50 forward @7 unknown #
edge $-1 -1 $-1 $38 0 $51 0.1000000000000001027 $30 $52 forward @7 unknown #
coedge $-1 -1 $-1 $28 $53 $21 $35 reversed $17 $-1 #
edge $-1 -1 $-1 $51 0 $37 0.1000000000000000888 $34 $54 forward @7 unknown #
coedge $-1 -1 $-1 $48 $22 $53 $55 forward $26 $-1 #
vertex $-1 -1 $-1 $23 $56 #
vertex $-1 -1 $-1 $23 $57 #
straight-curve $-1 -1 $-1 0.5000000000000004441 -0.5 0 -5.000000000000000888 0 8.660254037844385522 I I #
DXID-attrib $-1 -1 $-1 $-1 $25 @10 ASM ENTITY @1 4 #
loop $-1 -1 $-1 $-1 $58 $25 #
plane-surface $-1 -1 $-1 0 0.5 0.4330127018922198534 0 1 0 0 0 10 forward_v I I I I #
coedge $-1 -1 $-1 $53 $28 $59 $60 reversed $17 $-1 #
coedge $-1 -1 $-1 $30 $29 $28 $45 reversed $12 $-1 #
edge $-1 -1 $-1 $51 -0.05000000000000000278 $61 0.05000000000000000278 $28 $62 forward @7 unknown #
coedge $-1 -1 $-1 $58 $59 $29 $47 forward $41 $-1 #
edge $-1 -1 $-1 $61 -0.1000000000000001027 $49 -0 $29 $63 forward @7 unknown #
coedge $-1 -1 $-1 $31 $36 $58 $64 reversed $26 $-1 #
vertex $-1 -1 $-1 $32 $65 #
straight-curve $-1 -1 $-1 -3.816391647148975608e-16 0 0.8660254037844397068 0 -10 0 I I #
vertex $-1 -1 $-1 $33 $66 #
straight-curve $-1 -1 $-1 -3.816391647148975608e-16 -0.5 0.8660254037844397068 -4.999999999999994671 0 -8.660254037844389075 I I #
coedge $-1 -1 $-1 $34 $43 $36 $55 reversed $17 $-1 #
straight-curve $-1 -1 $-1 -0.5000000000000004441 -0.5 0 10 0 0 I I #
edge $-1 -1 $-1 $37 -0.05000000000000000278 $67 0.05000000000000000278 $36 $68 forward @7 unknown #
point $-1 -1 $-1 0.5000000000000004441 -0.5 0 #
point $-1 -1 $-1 -4.163336342344337027e-16 -0.5 0.8660254037844397068 #
coedge $-1 -1 $-1 $59 $46 $48 $64 forward $41 $-1 #
coedge $-1 -1 $-1 $46 $58 $43 $60 forward $41 $-1 #
edge $-1 -1 $-1 $67 -0.1000000000000000888 $61 -0 $43 $69 forward @7 unknown #
vertex $-1 -1 $-1 $47 $70 #
straight-curve $-1 -1 $-1 -0.5000000000000004441 0 0 0 10 0 I I #
straight-curve $-1 -1 $-1 -3.816391647148975608e-16 0.5 0.8660254037844397068 4.999999999999994671 0 8.660254037844389075 I I #
edge $-1 -1 $-1 $49 -0.1000000000000001443 $67 -0 $48 $71 forward @7 unknown #
point $-1 -1 $-1 -4.163336342344337027e-16 0.5 0.8660254037844397068 #
point $-1 -1 $-1 -0.5000000000000004441 -0.5 0 #
vertex $-1 -1 $-1 $60 $72 #
straight-curve $-1 -1 $-1 0.5000000000000004441 0 0 0 10 0 I I #
straight-curve $-1 -1 $-1 -0.5000000000000004441 0.5 0 -10 -0 -0 I I #
point $-1 -1 $-1 -0.5000000000000004441 0.5 0 #
straight-curve $-1 -1 $-1 0.5000000000000004441 0.5 0 5.000000000000000888 0 -8.660254037844385522 I I #
point $-1 -1 $-1 0.5000000000000004441 0.5 0 #
End-of-ACIS-data 